<?xml version="1.0" encoding="utf-8"?>
<!-- Generator: Adobe Illustrator 16.0.0, SVG Export Plug-In . SVG Version: 6.00 Build 0)  -->
<!DOCTYPE svg PUBLIC "-//W3C//DTD SVG 1.1//EN" "http://www.w3.org/Graphics/SVG/1.1/DTD/svg11.dtd">
<svg version="1.1" id="Layer_1" xmlns="http://www.w3.org/2000/svg" xmlns:xlink="http://www.w3.org/1999/xlink" x="0px" y="0px"
	 width="800px" height="288.319px" viewBox="0 0 800 288.319" enable-background="new 0 0 800 288.319" xml:space="preserve">
<path fill-rule="evenodd" clip-rule="evenodd" fill="#F47D30" d="M70.729,280.714V247.13h-6.334l-9.477,28.385l-9.524-28.385h-6.425
	v33.584h4.299v-19.814c0-0.796-0.046-2.059-0.093-3.699c-0.046-1.734-0.046-2.952-0.046-3.794v-1.03l9.524,28.338h4.438
	l9.478-28.338c-0.047,1.826-0.047,3.514-0.047,5.105c-0.045,1.591-0.045,2.716-0.045,3.418v19.814H70.729z"/>
<path fill-rule="evenodd" clip-rule="evenodd" fill="#F47D30" d="M140.674,266.942h-10.356l5.317-14.847L140.674,266.942z
	 M150.429,280.714l-12.02-33.584h-5.086l-12.482,33.584h4.577l3.606-10.072h13.129l3.329,10.072H150.429z"/>
<path fill-rule="evenodd" clip-rule="evenodd" fill="#F47D30" d="M229.638,280.714v-17.987h-14.562v3.794h10.355
	c-0.046,3.935-1.063,6.792-3.005,8.525c-1.988,1.78-4.439,2.67-7.444,2.67c-3.929-0.046-6.75-1.266-8.46-3.795
	c-1.709-2.528-2.588-5.761-2.588-9.742c0-4.636,1.017-8.103,3.144-10.444c2.08-2.296,4.669-3.466,7.767-3.466
	c2.588,0,4.716,0.561,6.426,1.685c1.71,1.125,2.82,2.903,3.375,5.341h4.438c-0.739-4.402-2.773-7.494-6.056-9.229
	c-2.266-1.217-4.947-1.826-8.09-1.826c-4.53,0.048-8.229,1.593-11.095,4.777c-3.006,3.326-4.531,7.775-4.531,13.396
	c0.046,5.667,1.434,10.259,4.623,13.351c2.773,2.715,6.241,3.84,10.17,3.84c3.051,0,5.548-0.562,7.49-1.688
	c1.202-0.654,2.543-1.825,4.069-3.512l1.063,4.31H229.638z M221.918,236.778h-2.22c-0.277,1.03-0.601,1.779-1.063,2.247
	c-0.832,0.938-2.08,1.359-3.698,1.359c-1.756,0-3.097-0.47-3.93-1.359c-0.462-0.515-0.832-1.266-1.063-2.247h-2.266
	c0.138,1.498,0.462,2.715,1.063,3.652c1.155,1.827,3.098,2.765,5.732,2.719c2.173,0,3.837-0.518,5.086-1.501
	C220.854,240.666,221.641,239.025,221.918,236.778z"/>
<path fill-rule="evenodd" clip-rule="evenodd" fill="#F47D30" d="M299.69,266.942h-10.355l5.317-14.847L299.69,266.942z
	 M309.446,280.714l-12.02-33.584h-5.086l-12.483,33.584h4.577l3.606-10.072h13.13l3.329,10.072H309.446z"/>
<polygon fill-rule="evenodd" clip-rule="evenodd" fill="#F47D30" points="383.292,280.714 383.292,276.731 362.857,276.731 
	383.292,251.017 383.292,247.13 358.65,247.13 358.65,251.11 377.512,251.11 357.172,276.92 357.172,280.714 "/>
<path fill-rule="evenodd" clip-rule="evenodd" fill="#F47D30" d="M450.977,266.942h-10.354l5.316-14.847L450.977,266.942z
	 M460.733,280.714l-12.021-33.584h-5.085l-12.482,33.584h4.578l3.606-10.072h13.128l3.329,10.072H460.733z"/>
<polygon fill-rule="evenodd" clip-rule="evenodd" fill="#F47D30" points="532.222,280.714 532.222,276.731 515.393,276.731 
	515.393,247.13 510.909,247.13 510.909,280.714 "/>
<path fill-rule="evenodd" clip-rule="evenodd" fill="#F47D30" d="M599.735,266.942h-10.354l5.317-14.847L599.735,266.942z
	 M609.492,280.714l-12.02-33.584h-5.087l-12.481,33.584h4.575l3.608-10.072h13.128l3.329,10.072H609.492z"/>
<path fill-rule="evenodd" clip-rule="evenodd" fill="#F47D30" d="M681.951,256.592c0,2.249-0.646,3.793-1.851,4.636
	c-1.248,0.89-2.912,1.264-4.991,1.264h-10.403v-11.475h10.958c1.57,0,2.773,0.234,3.697,0.702
	C681.072,252.608,681.997,254.248,681.951,256.592z M687.775,280.714v-0.75c-0.74-0.328-1.202-1.03-1.479-2.061
	c-0.187-0.657-0.232-1.593-0.278-2.857l-0.185-4.495c-0.092-1.971-0.462-3.374-1.109-4.265c-0.646-0.889-1.618-1.546-2.912-2.107
	c1.479-0.75,2.635-1.778,3.421-3.045c0.831-1.311,1.247-2.95,1.247-4.964c0-3.888-1.525-6.511-4.668-7.917
	c-1.619-0.748-3.698-1.123-6.242-1.123h-15.348v33.584h4.483v-14.428h10.218c1.848,0,3.19,0.234,4.068,0.656
	c1.524,0.748,2.313,2.201,2.404,4.404l0.276,5.573c0.048,1.358,0.14,2.2,0.232,2.669c0.092,0.468,0.23,0.845,0.322,1.125H687.775z"
	/>
<rect x="740.175" y="247.13" fill-rule="evenodd" clip-rule="evenodd" fill="#F47D30" width="4.53" height="33.584"/>
<path fill-rule="evenodd" clip-rule="evenodd" fill="#54534A" d="M63.638,117.156h57.952c0-14.914-13.185-28.272-28.209-28.272
	C74.372,88.884,63.638,99.758,63.638,117.156z M174.451,150.089H63.638c0,19.259,14.72,31.997,31.583,31.997
	c10.12,0,19.319-4.66,23.917-14.294h55.313v14.381c-15.778,29.251-50.656,39.369-83.218,39.369
	c-51.514,0-91.374-29.823-91.374-84.505c0-53.434,39.555-87.608,91.07-87.608c39.598,0,68.736,18.447,83.521,48.194V150.089z"/>
<path fill="#141006" d="M174.451,182.173v-14.381h5.709C178.729,173.031,176.802,177.814,174.451,182.173z M174.451,150.089V97.623
	c7.426,14.94,11.231,32.731,10.922,52.466H174.451z"/>
<path fill="#54534A" d="M174.451,216.882v-34.709c2.351-4.358,4.278-9.142,5.709-14.381h-5.709v-17.703h10.922
	c0.309-19.735-3.496-37.526-10.922-52.466V54.089h58.261v25.476c14.412-19.575,30.048-30.136,54.271-30.136
	c42.316,0,62.249,25.167,62.249,69.902v97.551h-63.778v-86.054c0-16.157-4.296-30.449-22.384-30.449
	c-19.628,0-24.84,12.738-24.84,33.553v82.949H174.451z"/>
<path fill-rule="evenodd" clip-rule="evenodd" fill="#F47D30" d="M425.012,174.942c22.081,0,29.132-18.951,29.132-37.905
	c0-18.019-6.134-37.592-27.293-37.592s-26.983,20.507-26.983,38.526C399.867,155.057,404.163,174.942,425.012,174.942z
	 M515.778,216.882h-57.34v-21.75c-15.028,19.886-28.827,26.41-49.372,26.41c-48.445,0-72.976-36.973-72.976-82.949
	c0-54.056,29.744-89.164,68.073-89.164c20.235,0,34.343,4.973,47.832,21.129V0h63.783v95.515
	c-6.063,11.951-9.438,25.914-9.438,41.522c0,15.917,3.377,29.729,9.438,41.312V216.882z"/>
<path fill="#141006" d="M515.778,178.349c-6.061-11.582-9.438-25.395-9.438-41.312c0-15.608,3.374-29.572,9.438-41.522V178.349z"/>
<path fill-rule="evenodd" clip-rule="evenodd" fill="#54534A" d="M681.419,216.882v-35.63c2.132-4.109,3.892-8.587,5.223-13.46
	h-5.223v-17.703h10.436c0.302-19.299-3.33-36.739-10.436-51.472V54.089h57.951V87.02h0.614
	c8.894-25.475,24.532-37.591,49.372-37.591c2.756,0,5.516,0.621,8.277,0.934v64.618c-4.292-0.621-8.896-1.863-13.186-1.863
	c-26.066,0-39.253,12.424-39.253,47.532v56.232H681.419z"/>
<path fill="#141006" d="M691.854,150.089h-10.436V98.617C688.524,113.351,692.156,130.79,691.854,150.089z M681.419,167.792h5.223
	c-1.331,4.873-3.091,9.351-5.223,13.46V167.792z"/>
<path fill="#54534A" d="M570.119,117.156h57.953c0-14.914-13.186-28.272-28.21-28.272
	C580.853,88.884,570.119,99.758,570.119,117.156z M681.419,150.089h-111.3c0,19.259,14.72,31.997,31.583,31.997
	c10.121,0,19.317-4.66,23.918-14.294h55.799v13.46c-15.539,29.958-50.805,40.29-83.703,40.29c-36.521,0-67.182-14.988-81.938-43.193
	V95.515c14.69-28.96,45.166-46.086,81.632-46.086c40.04,0,69.383,18.859,84.009,49.188V150.089z"/>
</svg>
